<svg xmlns="http://www.w3.org/2000/svg" viewBox="0 0 1200 630" width="1200" height="630">
  <defs>
    <filter id="glow-micro" x="-30%" y="-30%" width="160%" height="160%">
      <feGaussianBlur in="SourceGraphic" stdDeviation="1.5" result="b"/>
      <feMerge><feMergeNode in="b"/><feMergeNode in="SourceGraphic"/></feMerge>
    </filter>
    <filter id="glow-sm" x="-60%" y="-60%" width="220%" height="220%">
      <feGaussianBlur in="SourceGraphic" stdDeviation="4" result="b"/>
      <feMerge><feMergeNode in="b"/><feMergeNode in="SourceGraphic"/></feMerge>
    </filter>
    <filter id="glow-md" x="-80%" y="-80%" width="260%" height="260%">
      <feGaussianBlur in="SourceGraphic" stdDeviation="10" result="b"/>
      <feMerge><feMergeNode in="b"/><feMergeNode in="SourceGraphic"/></feMerge>
    </filter>
    <filter id="glow-lg" x="-120%" y="-120%" width="340%" height="340%">
      <feGaussianBlur in="SourceGraphic" stdDeviation="22" result="b"/>
      <feMerge><feMergeNode in="b"/><feMergeNode in="SourceGraphic"/></feMerge>
    </filter>
    <filter id="glow-xl" x="-200%" y="-200%" width="500%" height="500%">
      <feGaussianBlur in="SourceGraphic" stdDeviation="40" result="b"/>
      <feMerge><feMergeNode in="b"/><feMergeNode in="SourceGraphic"/></feMerge>
    </filter>
    <filter id="title-glow" x="-5%" y="-50%" width="110%" height="200%">
      <feGaussianBlur in="SourceGraphic" stdDeviation="12" result="b"/>
      <feMerge><feMergeNode in="b"/><feMergeNode in="SourceGraphic"/></feMerge>
    </filter>

    <radialGradient id="bg-grad" cx="38%" cy="62%" r="80%">
      <stop offset="0%" stop-color="#0d1540"/>
      <stop offset="55%" stop-color="#06091c"/>
      <stop offset="100%" stop-color="#020308"/>
    </radialGradient>
    <radialGradient id="neb-pur" cx="50%" cy="50%" r="50%">
      <stop offset="0%" stop-color="#380c6c" stop-opacity="0.55"/>
      <stop offset="100%" stop-color="#380c6c" stop-opacity="0"/>
    </radialGradient>
    <radialGradient id="neb-cyn" cx="50%" cy="50%" r="50%">
      <stop offset="0%" stop-color="#003d6e" stop-opacity="0.4"/>
      <stop offset="100%" stop-color="#003d6e" stop-opacity="0"/>
    </radialGradient>

    <radialGradient id="o1" cx="35%" cy="30%" r="65%">
      <stop offset="0%" stop-color="#ffffff"/>
      <stop offset="60%" stop-color="#c8d8ff"/>
      <stop offset="100%" stop-color="#8090c0" stop-opacity="0"/>
    </radialGradient>
    <radialGradient id="o2" cx="35%" cy="30%" r="65%">
      <stop offset="0%" stop-color="#e0ffff"/>
      <stop offset="45%" stop-color="#00e8ff"/>
      <stop offset="100%" stop-color="#00a0d0" stop-opacity="0"/>
    </radialGradient>
    <radialGradient id="o3" cx="35%" cy="30%" r="65%">
      <stop offset="0%" stop-color="#c0ffff"/>
      <stop offset="40%" stop-color="#00ffd0"/>
      <stop offset="100%" stop-color="#007060" stop-opacity="0"/>
    </radialGradient>
    <radialGradient id="o4" cx="35%" cy="30%" r="65%">
      <stop offset="0%" stop-color="#a0d0ff"/>
      <stop offset="40%" stop-color="#0080ff"/>
      <stop offset="100%" stop-color="#002080" stop-opacity="0"/>
    </radialGradient>
    <radialGradient id="o5" cx="35%" cy="30%" r="65%">
      <stop offset="0%" stop-color="#fffff8"/>
      <stop offset="25%" stop-color="#fff088"/>
      <stop offset="65%" stop-color="#ff8800"/>
      <stop offset="100%" stop-color="#a02800" stop-opacity="0"/>
    </radialGradient>
    <radialGradient id="o6" cx="35%" cy="30%" r="65%">
      <stop offset="0%" stop-color="#f5d8ff"/>
      <stop offset="28%" stop-color="#c050ff"/>
      <stop offset="65%" stop-color="#5818a0"/>
      <stop offset="100%" stop-color="#200050" stop-opacity="0"/>
    </radialGradient>
    <radialGradient id="o7" cx="35%" cy="30%" r="65%">
      <stop offset="0%" stop-color="#d0c8ff"/>
      <stop offset="28%" stop-color="#5030e0"/>
      <stop offset="65%" stop-color="#1818a0"/>
      <stop offset="100%" stop-color="#080040" stop-opacity="0"/>
    </radialGradient>
    <radialGradient id="o8" cx="35%" cy="30%" r="65%">
      <stop offset="0%" stop-color="#e8f8ff"/>
      <stop offset="18%" stop-color="#40d0ff"/>
      <stop offset="48%" stop-color="#8040ff"/>
      <stop offset="75%" stop-color="#d040c0"/>
      <stop offset="100%" stop-color="#500070" stop-opacity="0"/>
    </radialGradient>

    <clipPath id="bounds"><rect width="1200" height="630"/></clipPath>
  </defs>

  <!-- Background -->
  <rect width="1200" height="630" fill="url(#bg-grad)"/>
  <ellipse cx="900" cy="260" rx="320" ry="240" fill="url(#neb-pur)" opacity="0.7"/>
  <ellipse cx="180" cy="420" rx="260" ry="210" fill="url(#neb-cyn)" opacity="0.6"/>
  <ellipse cx="580" cy="140" rx="300" ry="180" fill="url(#neb-pur)" opacity="0.35"/>

  <!-- Stars -->
  <g id="stars">
    <circle cx="50" cy="28" r="1.5" fill="#fff" class="tw-a" filter="url(#glow-micro)"/>
    <circle cx="185" cy="16" r="1" fill="#d8e8ff" class="tw-b"/>
    <circle cx="328" cy="44" r="1.8" fill="#fff" class="tw-c" filter="url(#glow-micro)"/>
    <circle cx="475" cy="20" r="1" fill="#d8e8ff" class="tw-a"/>
    <circle cx="548" cy="56" r="2" fill="#fff" class="tw-b" filter="url(#glow-micro)"/>
    <circle cx="672" cy="30" r="1" fill="#d0e0ff" class="tw-c"/>
    <circle cx="784" cy="14" r="1.5" fill="#fff" class="tw-a" filter="url(#glow-micro)"/>
    <circle cx="895" cy="42" r="1" fill="#d8e8ff" class="tw-b"/>
    <circle cx="1005" cy="26" r="1.5" fill="#fff" class="tw-c" filter="url(#glow-micro)"/>
    <circle cx="1098" cy="56" r="1" fill="#d0e0ff" class="tw-a"/>
    <circle cx="1168" cy="18" r="2" fill="#fff" class="tw-b" filter="url(#glow-micro)"/>
    <circle cx="22" cy="88" r="0.7" fill="#a0b0d0" class="tw-c"/>
    <circle cx="78" cy="116" r="0.5" fill="#8090c0" class="tw-a"/>
    <circle cx="148" cy="74" r="0.7" fill="#a0b0d0" class="tw-b"/>
    <circle cx="225" cy="98" r="0.5" fill="#8090c0" class="tw-c"/>
    <circle cx="308" cy="78" r="0.7" fill="#a0b0d0" class="tw-a"/>
    <circle cx="392" cy="104" r="0.5" fill="#8090c0" class="tw-b"/>
    <circle cx="462" cy="84" r="0.7" fill="#a0b0d0" class="tw-c"/>
    <circle cx="542" cy="112" r="0.5" fill="#8090c0" class="tw-a"/>
    <circle cx="618" cy="88" r="0.7" fill="#a0b0d0" class="tw-b"/>
    <circle cx="698" cy="72" r="0.5" fill="#8090c0" class="tw-c"/>
    <circle cx="772" cy="108" r="0.7" fill="#a0b0d0" class="tw-a"/>
    <circle cx="852" cy="76" r="0.5" fill="#8090c0" class="tw-b"/>
    <circle cx="934" cy="96" r="0.7" fill="#a0b0d0" class="tw-c"/>
    <circle cx="1016" cy="72" r="0.5" fill="#8090c0" class="tw-a"/>
    <circle cx="1078" cy="102" r="0.7" fill="#a0b0d0" class="tw-b"/>
    <circle cx="1142" cy="84" r="0.5" fill="#8090c0" class="tw-c"/>
    <circle cx="1192" cy="58" r="0.7" fill="#a0b0d0" class="tw-a"/>
    <circle cx="16" cy="162" r="0.7" fill="#a0b0d0" class="tw-b"/>
    <circle cx="68" cy="192" r="0.5" fill="#8090c0" class="tw-c"/>
    <circle cx="132" cy="178" r="1" fill="#c0d0e8" class="tw-a"/>
    <circle cx="192" cy="158" r="0.5" fill="#8090c0" class="tw-b"/>
    <circle cx="258" cy="184" r="0.7" fill="#a0b0d0" class="tw-c"/>
    <circle cx="362" cy="164" r="0.5" fill="#8090c0" class="tw-a"/>
    <circle cx="428" cy="196" r="0.7" fill="#a0b0d0" class="tw-b"/>
    <circle cx="508" cy="172" r="0.5" fill="#8090c0" class="tw-c"/>
    <circle cx="578" cy="188" r="1" fill="#c0d0e8" class="tw-a"/>
    <circle cx="648" cy="168" r="0.5" fill="#8090c0" class="tw-b"/>
    <circle cx="728" cy="188" r="0.7" fill="#a0b0d0" class="tw-c"/>
    <circle cx="812" cy="162" r="0.5" fill="#8090c0" class="tw-a"/>
    <circle cx="892" cy="182" r="0.7" fill="#a0b0d0" class="tw-b"/>
    <circle cx="972" cy="164" r="0.5" fill="#8090c0" class="tw-c"/>
    <circle cx="1048" cy="188" r="1" fill="#c0d0e8" class="tw-a"/>
    <circle cx="1122" cy="170" r="0.5" fill="#8090c0" class="tw-b"/>
    <circle cx="1182" cy="188" r="0.7" fill="#a0b0d0" class="tw-c"/>
    <circle cx="38" cy="248" r="0.5" fill="#8090c0" class="tw-a"/>
    <circle cx="108" cy="272" r="0.7" fill="#a0b0d0" class="tw-b"/>
    <circle cx="182" cy="252" r="0.5" fill="#8090c0" class="tw-c"/>
    <circle cx="262" cy="276" r="1" fill="#c0d0e8" class="tw-a"/>
    <circle cx="342" cy="258" r="0.5" fill="#8090c0" class="tw-b"/>
    <circle cx="412" cy="282" r="0.7" fill="#a0b0d0" class="tw-c"/>
    <circle cx="496" cy="264" r="0.5" fill="#8090c0" class="tw-a"/>
    <circle cx="568" cy="286" r="0.7" fill="#a0b0d0" class="tw-b"/>
    <circle cx="1145" cy="252" r="0.7" fill="#a0b0d0" class="tw-c"/>
    <circle cx="1188" cy="278" r="0.5" fill="#8090c0" class="tw-a"/>
  </g>

  <!-- Evolution trail -->
  <path d="M 90,500 C 155,488 180,482 210,478 C 278,470 308,460 338,452 C 415,438 452,428 480,420 C 562,405 602,393 640,382 C 732,366 778,352 820,338 C 922,314 972,302 1020,288 C 1092,270 1142,256 1190,232"
        fill="none" stroke="#1e3858" stroke-width="1.2" stroke-dasharray="4,9" opacity="0.5"/>

  <!-- ── Stage 1: Light Dust ── -->
  <g id="s1">
    <circle cx="90" cy="500" r="14" fill="#d0e8ff" opacity="0.12" class="pa" filter="url(#glow-sm)"/>
    <circle cx="90" cy="500" r="4" fill="url(#o1)" filter="url(#glow-micro)"/>
    <text x="90" y="522" text-anchor="middle" font-family="system-ui,sans-serif" font-size="8.5" fill="#5060a0">Light Dust</text>
  </g>

  <!-- ── Stage 2: Droplet ── -->
  <g id="s2">
    <circle cx="210" cy="478" r="28" fill="#00e8ff" opacity="0.09" class="pb" filter="url(#glow-sm)"/>
    <circle cx="210" cy="478" r="16" fill="#00e8ff" opacity="0.14"/>
    <circle cx="210" cy="478" r="10" fill="url(#o2)" filter="url(#glow-sm)"/>
    <text x="210" y="502" text-anchor="middle" font-family="system-ui,sans-serif" font-size="8.5" fill="#5060a0">Droplet</text>
  </g>

  <!-- ── Stage 3: Ripple ── -->
  <g id="s3">
    <circle cx="338" cy="452" r="35" fill="none" stroke="#00ffd0" stroke-width="0.6" opacity="0.35" class="pc"/>
    <circle cx="338" cy="452" r="27" fill="none" stroke="#00ffd0" stroke-width="0.6" opacity="0.45"/>
    <circle cx="338" cy="452" r="35" fill="#00ffd0" opacity="0.07" class="pa" filter="url(#glow-sm)"/>
    <circle cx="338" cy="452" r="18" fill="url(#o3)" filter="url(#glow-sm)"/>
    <text x="338" y="482" text-anchor="middle" font-family="system-ui,sans-serif" font-size="8.5" fill="#5060a0">Ripple</text>
  </g>

  <!-- ── Stage 4: Moonlit Lake ── -->
  <g id="s4">
    <circle cx="480" cy="420" r="60" fill="#0080ff" opacity="0.09" class="pb" filter="url(#glow-md)"/>
    <circle cx="480" cy="420" r="42" fill="#0080ff" opacity="0.12"/>
    <circle cx="480" cy="420" r="30" fill="url(#o4)" filter="url(#glow-sm)"/>
    <text x="480" y="462" text-anchor="middle" font-family="system-ui,sans-serif" font-size="8.5" fill="#5060a0">Moonlit Lake</text>
  </g>

  <!-- ── Stage 5: Star ── -->
  <g id="s5">
    <line x1="640" y1="318" x2="640" y2="446" stroke="#ffee88" stroke-width="1" opacity="0.28"/>
    <line x1="578" y1="382" x2="702" y2="382" stroke="#ffee88" stroke-width="1" opacity="0.28"/>
    <line x1="597" y1="339" x2="683" y2="425" stroke="#ffee88" stroke-width="0.8" opacity="0.2"/>
    <line x1="683" y1="339" x2="597" y2="425" stroke="#ffee88" stroke-width="0.8" opacity="0.2"/>
    <circle cx="640" cy="382" r="85" fill="#ffee44" opacity="0.07" class="pa" filter="url(#glow-md)"/>
    <circle cx="640" cy="382" r="64" fill="#ffee44" opacity="0.11"/>
    <circle cx="640" cy="382" r="48" fill="url(#o5)" filter="url(#glow-sm)"/>
    <text x="640" y="442" text-anchor="middle" font-family="system-ui,sans-serif" font-size="8.5" fill="#5060a0">Star</text>
  </g>

  <!-- ── Stage 6: Nebula ── -->
  <g id="s6">
    <ellipse cx="800" cy="328" rx="100" ry="65" fill="#c050ff" opacity="0.07" transform="rotate(-15,800,328)"/>
    <ellipse cx="848" cy="352" rx="85" ry="55" fill="#ff50d0" opacity="0.06" transform="rotate(20,848,352)"/>
    <circle cx="820" cy="338" r="125" fill="#a030e0" opacity="0.09" class="pc" filter="url(#glow-lg)"/>
    <circle cx="820" cy="338" r="96" fill="#a030e0" opacity="0.12"/>
    <circle cx="820" cy="338" r="70" fill="url(#o6)" filter="url(#glow-md)"/>
    <text x="820" y="422" text-anchor="middle" font-family="system-ui,sans-serif" font-size="8.5" fill="#5060a0">Nebula</text>
  </g>

  <!-- ── Stage 7: Galaxy ── -->
  <g id="s7">
    <path d="M 1020,193 C 1118,193 1118,288 1118,288 C 1118,383 1020,383 1020,383"
          fill="none" stroke="#6040e0" stroke-width="14" opacity="0.09" stroke-linecap="round"/>
    <path d="M 1020,193 C 922,193 922,288 922,288 C 922,383 1020,383 1020,383"
          fill="none" stroke="#6040e0" stroke-width="14" opacity="0.09" stroke-linecap="round"/>
    <circle cx="1020" cy="288" r="160" fill="#4020c0" opacity="0.09" class="pb" filter="url(#glow-xl)"/>
    <circle cx="1020" cy="288" r="128" fill="#4020c0" opacity="0.12"/>
    <circle cx="1020" cy="288" r="95" fill="url(#o7)" filter="url(#glow-md)"/>
    <text x="1020" y="396" text-anchor="middle" font-family="system-ui,sans-serif" font-size="8.5" fill="#5060a0">Galaxy</text>
  </g>

  <!-- ── Stage 8: Cosmic Web ── -->
  <g id="s8" clip-path="url(#bounds)">
    <line x1="1190" y1="232" x2="1295" y2="145" stroke="#40d0ff" stroke-width="1.2" opacity="0.45"/>
    <line x1="1190" y1="232" x2="1308" y2="238" stroke="#d040c0" stroke-width="1.2" opacity="0.45"/>
    <line x1="1190" y1="232" x2="1295" y2="328" stroke="#40d0ff" stroke-width="1" opacity="0.38"/>
    <line x1="1190" y1="232" x2="1240" y2="380" stroke="#d040c0" stroke-width="0.8" opacity="0.3"/>
    <line x1="1190" y1="232" x2="1095" y2="378" stroke="#40d0ff" stroke-width="0.8" opacity="0.3"/>
    <line x1="1190" y1="232" x2="1055" y2="162" stroke="#d040c0" stroke-width="0.8" opacity="0.3"/>
    <circle cx="1295" cy="145" r="4.5" fill="#40d0ff" opacity="0.8" filter="url(#glow-micro)"/>
    <circle cx="1308" cy="238" r="3.5" fill="#d040c0" opacity="0.8" filter="url(#glow-micro)"/>
    <circle cx="1295" cy="328" r="4.5" fill="#40d0ff" opacity="0.7" filter="url(#glow-micro)"/>
    <circle cx="1240" cy="380" r="3" fill="#d040c0" opacity="0.65" filter="url(#glow-micro)"/>
    <circle cx="1095" cy="378" r="4" fill="#40d0ff" opacity="0.65" filter="url(#glow-micro)"/>
    <circle cx="1055" cy="162" r="3.5" fill="#d040c0" opacity="0.65" filter="url(#glow-micro)"/>
    <circle cx="1190" cy="232" r="205" fill="#40c8ff" opacity="0.07" class="pa" filter="url(#glow-xl)"/>
    <circle cx="1190" cy="232" r="168" fill="#8040e0" opacity="0.11"/>
    <circle cx="1190" cy="232" r="125" fill="url(#o8)" filter="url(#glow-lg)"/>
    <text x="1148" y="375" text-anchor="middle" font-family="system-ui,sans-serif" font-size="8.5" fill="#5060a0">Cosmic Web</text>
  </g>

  <!-- Title glow layer -->
  <text x="96" y="130" font-family="system-ui,-apple-system,BlinkMacSystemFont,'Segoe UI',sans-serif"
        font-size="74" font-weight="800" fill="#00d8c8" opacity="0.35" filter="url(#title-glow)">Lumen Bloom</text>
  <!-- Title -->
  <text x="96" y="130" font-family="system-ui,-apple-system,BlinkMacSystemFont,'Segoe UI',sans-serif"
        font-size="74" font-weight="800" fill="#1af5e0">Lumen Bloom</text>
  <!-- Korean subtitle -->
  <text x="100" y="172" font-family="system-ui,-apple-system,BlinkMacSystemFont,'Segoe UI',sans-serif"
        font-size="26" font-weight="300" fill="#8090c8" letter-spacing="3">빛의 탄생</text>
  <!-- Tagline -->
  <text x="100" y="210" font-family="system-ui,-apple-system,BlinkMacSystemFont,'Segoe UI',sans-serif"
        font-size="13" font-weight="400" fill="#4858a0" letter-spacing="2.5">INFINITE GROWTH  ·  AMBIENT ARCADE  ·  WEB / PWA</text>

  <!-- Divider -->
  <line x1="100" y1="226" x2="660" y2="226" stroke="#182050" stroke-width="1"/>

  <!-- Tech pills -->
  <rect x="100" y="240" width="92" height="22" rx="11" fill="#080e30" stroke="#1a2860" stroke-width="1"/>
  <text x="146" y="255" text-anchor="middle" font-family="system-ui,sans-serif" font-size="10" fill="#4488c0">TypeScript 5.7</text>
  <rect x="202" y="240" width="60" height="22" rx="11" fill="#080e30" stroke="#1a2860" stroke-width="1"/>
  <text x="232" y="255" text-anchor="middle" font-family="system-ui,sans-serif" font-size="10" fill="#4488c0">Vite 6</text>
  <rect x="272" y="240" width="72" height="22" rx="11" fill="#080e30" stroke="#1a2860" stroke-width="1"/>
  <text x="308" y="255" text-anchor="middle" font-family="system-ui,sans-serif" font-size="10" fill="#4488c0">60 Hz ECS</text>
  <rect x="354" y="240" width="72" height="22" rx="11" fill="#080e30" stroke="#1a2860" stroke-width="1"/>
  <text x="390" y="255" text-anchor="middle" font-family="system-ui,sans-serif" font-size="10" fill="#4488c0">PWA-Ready</text>
  <rect x="436" y="240" width="62" height="22" rx="11" fill="#080e30" stroke="#1a2860" stroke-width="1"/>
  <text x="467" y="255" text-anchor="middle" font-family="system-ui,sans-serif" font-size="10" fill="#4488c0">8 Stages</text>

  <style>
    @keyframes pulse { 0%,100%{opacity:.7} 50%{opacity:1} }
    @keyframes twinkle { 0%,100%{opacity:.8} 50%{opacity:.15} }
    @keyframes twinkle-alt { 0%,100%{opacity:.2} 50%{opacity:.75} }
    .pa { animation: pulse 2.2s ease-in-out infinite }
    .pb { animation: pulse 3s ease-in-out .6s infinite }
    .pc { animation: pulse 4s ease-in-out 1.2s infinite }
    .tw-a { animation: twinkle 3.2s ease-in-out infinite }
    .tw-b { animation: twinkle-alt 4.6s ease-in-out 1.5s infinite }
    .tw-c { animation: twinkle 5.8s ease-in-out 3s infinite }
  </style>
</svg>
